<?xml version="1.0" ?><svg viewBox="0 0 24 24" xmlns="http://www.w3.org/2000/svg"><defs><style>.cls-1{fill:#f19b5f;}.cls-2{fill:#ffce69;}.cls-3{fill:#ffe5b6;}.cls-4{fill:#6c2e7c;}</style></defs><g id="Icons"><path class="cls-1" d="M21,10.66V20a3,3,0,0,1-3,3H6a3,3,0,0,1-3-3V4A3,3,0,0,1,6,1h5.34a4,4,0,0,1,2.83,1.17l5.66,5.66A4,4,0,0,1,21,10.66Z"/><path class="cls-2" d="M21,10.66V15a3,3,0,0,1-3,3H6a3,3,0,0,1-3-3V4A3,3,0,0,1,6,1h5.34a4,4,0,0,1,2.83,1.17l5.66,5.66A4,4,0,0,1,21,10.66Z"/><path class="cls-3" d="M20.64,9H16a3,3,0,0,1-3-3V1.36a4.089,4.089,0,0,1,1.17.81l5.66,5.66A4.089,4.089,0,0,1,20.64,9Z"/></g><g data-name="Layer 4" id="Layer_4"><path class="cls-4" d="M6,24H18a4,4,0,0,0,4-4V10.657a4.968,4.968,0,0,0-.433-2.016.85.85,0,0,0-.055-.1,4.976,4.976,0,0,0-.977-1.416L14.879,1.464A4.981,4.981,0,0,0,13.462.487c-.035-.018-.066-.04-.1-.055A4.984,4.984,0,0,0,11.343,0H6A4,4,0,0,0,2,4V20A4,4,0,0,0,6,24ZM18.586,8H16a2,2,0,0,1-2-2V3.414ZM4,4A2,2,0,0,1,6,2h5.343A3,3,0,0,1,12,2.078V6a4,4,0,0,0,4,4h3.92a2.953,2.953,0,0,1,.08.657V20a2,2,0,0,1-2,2H6a2,2,0,0,1-2-2Z"/><path class="cls-4" d="M7,20H17a1,1,0,0,0,0-2H7a1,1,0,0,0,0,2Z"/><path class="cls-4" d="M7,16h4a1,1,0,0,0,0-2H7a1,1,0,0,0,0,2Z"/></g></svg>